<svg viewBox="0 0 64 64" fill="none" xmlns="http://www.w3.org/2000/svg">
<path d="M54 21.2441C59.5228 21.2441 64 25.7213 64 31.2441V54C64 59.5228 59.5228 64 54 64H31.2441C25.7213 64 21.2441 59.5228 21.2441 54V42.7559H32.7559C38.2787 42.7559 42.7559 38.2787 42.7559 32.7559V21.2441H54ZM32.7559 0C38.2787 0 42.7559 4.47715 42.7559 10V21.2441H31.2441C25.7213 21.2441 21.2441 25.7213 21.2441 31.2441V42.7559H10C4.47715 42.7559 0 38.2787 0 32.7559V10C0 4.47715 4.47715 0 10 0H32.7559Z" fill="currentColor"/>
</svg>
