<svg viewBox="0 0 64 64" fill="none" xmlns="http://www.w3.org/2000/svg">
<path d="M56.4706 31.921C56.4706 28.8996 54.0978 26.4325 51.114 26.2813L50.8235 26.2739H45.2555V32.079C45.2555 39.3562 39.3562 45.2555 32.079 45.2555H26.2739V50.8235L26.2813 51.114C26.4324 54.0978 28.8996 56.4706 31.921 56.4706H50.8235L51.114 56.4632C54.0016 56.3169 56.3169 54.0015 56.4632 51.114L56.4706 50.8235V31.921ZM26.2739 37.7261H32.079C35.1978 37.7261 37.7261 35.1978 37.7261 32.079V26.2739H31.921C28.8022 26.2739 26.2739 28.8022 26.2739 31.921V37.7261ZM37.7261 13.1765C37.7261 10.0577 35.1978 7.52941 32.079 7.52941H13.1765C10.0577 7.52941 7.52942 10.0577 7.52941 13.1765V32.079C7.52941 35.1978 10.0577 37.7261 13.1765 37.7261H18.7445V31.921C18.7445 24.6438 24.6438 18.7445 31.921 18.7445H37.7261V13.1765ZM45.2555 18.7445H50.8235C58.1006 18.7445 64 24.6438 64 31.921V50.8235C64 58.1007 58.1006 64 50.8235 64H31.921C24.6438 64 18.7445 58.1007 18.7445 50.8235V45.2555H13.1765C5.89932 45.2555 0 39.3562 0 32.079V13.1765C8.30258e-06 5.89932 5.89931 0 13.1765 0H32.079C39.3562 0 45.2555 5.89931 45.2555 13.1765V18.7445Z" fill="currentColor"/>
</svg>
